<?xml version="1.0" encoding="UTF-8" standalone="no"?>
<svg
   xmlns:dc="http://purl.org/dc/elements/1.1/"
   xmlns:cc="http://creativecommons.org/ns#"
   xmlns:rdf="http://www.w3.org/1999/02/22-rdf-syntax-ns#"
   xmlns:svg="http://www.w3.org/2000/svg"
   xmlns="http://www.w3.org/2000/svg"
   version="1.1"
   id="svg2"
   viewBox="0 0 100 100">
  <defs
     id="defs4" />
  <metadata
     id="metadata7">
    <rdf:RDF>
      <cc:Work
         rdf:about="">
        <dc:format>image/svg+xml</dc:format>
        <dc:type
           rdf:resource="http://purl.org/dc/dcmitype/StillImage" />
        <dc:title></dc:title>
      </cc:Work>
    </rdf:RDF>
  </metadata>
  <g
     transform="translate(0,-952.36216)"
     id="layer1">
    <g
       id="g4312">
      <path
         id="path4322-5"
         d="m 50,952.3622 a 50,49.999987 0 0 0 -50,50 l 14.173177,0 a 36.666667,36.666657 0 0 1 -0.0065,-0.1667 36.666667,36.666657 0 0 1 36.666666,-36.66664 36.666667,36.666657 0 0 1 25.566407,10.43359 l -9.901042,9.90104 28.285155,0 0,-28.28514 -9.45052,9.45051 A 50,49.999987 0 0 0 50,952.3622 Z m 37.492187,50 a 36.666667,36.666657 0 0 1 -36.658854,36.5 36.666667,36.666657 0 0 1 -26.25651,-11.0769 l 8.924479,-8.9244 -28.2851561,0 0,28.2851 9.4505211,-9.4505 A 50,49.999987 0 0 0 50,1052.3622 a 50,49.999987 0 0 0 50,-50 l -12.507813,0 z"
         style="color:#000000;clip-rule:nonzero;display:inline;overflow:visible;visibility:visible;opacity:1;isolation:auto;mix-blend-mode:normal;color-interpolation:sRGB;color-interpolation-filters:linearRGB;solid-color:#000000;solid-opacity:1;fill:#515151;fill-opacity:1;fill-rule:nonzero;stroke:none;stroke-width:1;stroke-linecap:butt;stroke-linejoin:miter;stroke-miterlimit:4;stroke-dasharray:none;stroke-dashoffset:0;stroke-opacity:1;color-rendering:auto;image-rendering:auto;shape-rendering:auto;text-rendering:auto;enable-background:accumulate" />
    </g>
  </g>
</svg>
